<svg xmlns="http://www.w3.org/2000/svg" viewBox="20 -1580 4560 1740" width="380" height="145" role="img" aria-label="tabIt">
  <!-- "tabIt" set in Fraunces italic 600 (the app's wordmark), converted to paths -->
  <path d="M232.0 -796 165.0 -812Q148.0 -818 139.5 -830.0Q131.0 -842 131.0 -856Q131.0 -877 148.0 -889.0Q165.0 -901 194.0 -901H271.0Q298.0 -901 318.5 -912.0Q339.0 -923 359.0 -944L497.0 -1096Q513.0 -1113 528.5 -1119.5Q544.0 -1126 563.0 -1126Q584.0 -1126 595.0 -1115.0Q606.0 -1104 606.0 -1085Q606.0 -1073 602.5 -1053.0Q599.0 -1033 591.0 -1007L384.0 -301Q357.0 -210 371.5 -178.5Q386.0 -147 435.0 -147Q475.0 -147 511.0 -166.5Q547.0 -186 586.0 -231Q600.0 -245 609.5 -250.5Q619.0 -256 629.0 -256Q642.0 -256 649.5 -246.5Q657.0 -237 654.0 -220Q647.0 -181 615.0 -138.5Q583.0 -96 531.0 -59.0Q479.0 -22 411.0 0.5Q343.0 23 264.0 23Q183.0 23 141.0 -9.5Q99.0 -42 94.0 -107.0Q89.0 -172 119.0 -269L248.0 -696Q264.0 -748 260.0 -768.5Q256.0 -789 232.0 -796ZM465.0 -799 497.0 -897H748.0Q786.0 -897 786.0 -863Q786.0 -833 761.5 -816.0Q737.0 -799 695.0 -799Z M1633.0 -285Q1613.0 -204 1619.5 -174.5Q1626.0 -145 1649.0 -145Q1665.0 -145 1682.0 -155.0Q1699.0 -165 1724.0 -190Q1741.0 -205 1752.5 -209.0Q1764.0 -213 1774.0 -207Q1787.0 -201 1787.0 -183.5Q1787.0 -166 1774.0 -140Q1734.0 -66 1659.0 -21.5Q1584.0 23 1500.0 23Q1432.0 23 1401.0 -10.0Q1370.0 -43 1370.0 -105Q1370.0 -128 1373.0 -155.5Q1376.0 -183 1384.0 -220.0Q1392.0 -257 1405.5 -307.0Q1419.0 -357 1439.0 -423L1460.0 -380Q1414.0 -254 1343.5 -163.5Q1273.0 -73 1186.5 -25.0Q1100.0 23 1006.0 23Q891.0 23 829.0 -52.5Q767.0 -128 784.0 -287Q794.0 -385 834.0 -480.0Q874.0 -575 940.5 -658.5Q1007.0 -742 1096.0 -805.0Q1185.0 -868 1292.0 -904.0Q1399.0 -940 1520.0 -940Q1621.0 -940 1688.0 -926.0Q1755.0 -912 1788.5 -888.5Q1822.0 -865 1818.0 -837Q1816.0 -813 1801.5 -801.5Q1787.0 -790 1772.0 -778.0Q1757.0 -766 1751.0 -741ZM1059.0 -290Q1049.0 -195 1071.5 -156.5Q1094.0 -118 1134.0 -118Q1173.0 -118 1215.5 -149.0Q1258.0 -180 1301.5 -237.0Q1345.0 -294 1384.0 -370.0Q1423.0 -446 1453.5 -538.0Q1484.0 -630 1502.0 -730Q1513.0 -790 1500.5 -818.5Q1488.0 -847 1453.0 -847Q1400.0 -847 1346.5 -814.5Q1293.0 -782 1245.0 -726.0Q1197.0 -670 1158.0 -598.5Q1119.0 -527 1093.0 -447.5Q1067.0 -368 1059.0 -290Z M2431.0 -1101 2266.0 -542 2223.0 -540Q2268.0 -668 2342.0 -757.0Q2416.0 -846 2507.0 -893.0Q2598.0 -940 2692.0 -940Q2809.0 -940 2874.0 -864.0Q2939.0 -788 2938.0 -653Q2936.0 -518 2887.0 -396.0Q2838.0 -274 2756.5 -179.5Q2675.0 -85 2574.5 -31.0Q2474.0 23 2369.0 23Q2256.0 23 2184.5 -35.0Q2113.0 -93 2120.0 -209L2168.0 -178L2028.0 -39Q2000.0 -13 1977.5 -2.0Q1955.0 9 1935.0 9Q1901.0 9 1890.0 -21.0Q1879.0 -51 1900.0 -125L2129.0 -936Q2175.0 -1099 2262.0 -1211.5Q2349.0 -1324 2482.0 -1382.0Q2615.0 -1440 2799.0 -1440Q2929.0 -1440 2995.5 -1400.0Q3062.0 -1360 3062.0 -1296Q3062.0 -1245 3028.0 -1209.5Q2994.0 -1174 2933.0 -1174Q2891.0 -1174 2853.0 -1197.5Q2815.0 -1221 2781.0 -1251.0Q2747.0 -1281 2712.5 -1304.5Q2678.0 -1328 2642.0 -1328Q2571.0 -1328 2517.5 -1272.5Q2464.0 -1217 2431.0 -1101ZM2561.0 -811Q2515.0 -809 2467.5 -771.0Q2420.0 -733 2376.0 -670.5Q2332.0 -608 2296.5 -531.0Q2261.0 -454 2239.5 -373.0Q2218.0 -292 2216.0 -218Q2215.0 -146 2246.5 -111.5Q2278.0 -77 2325.0 -77Q2368.0 -77 2414.5 -111.0Q2461.0 -145 2504.5 -204.0Q2548.0 -263 2583.5 -338.0Q2619.0 -413 2640.0 -496.0Q2661.0 -579 2662.0 -660Q2663.0 -717 2650.0 -750.0Q2637.0 -783 2613.5 -797.5Q2590.0 -812 2561.0 -811Z M3424.0 -162Q3417.0 -134 3425.0 -119.0Q3433.0 -104 3455.0 -98L3512.0 -86Q3531.0 -80 3540.0 -70.5Q3549.0 -61 3549.0 -46Q3549.0 -25 3532.5 -12.5Q3516.0 0 3487.0 0H3015.0Q2984.0 0 2973.0 -11.0Q2962.0 -22 2962.0 -40Q2962.0 -58 2974.5 -70.0Q2987.0 -82 3006.0 -88L3066.0 -99Q3092.0 -106 3106.5 -121.0Q3121.0 -136 3131.0 -168Q3141.0 -205 3159.5 -271.5Q3178.0 -338 3201.5 -423.5Q3225.0 -509 3250.5 -605.0Q3276.0 -701 3301.5 -797.0Q3327.0 -893 3349.0 -979.0Q3371.0 -1065 3388.0 -1133.0Q3405.0 -1201 3412.0 -1238Q3418.0 -1265 3412.0 -1279.5Q3406.0 -1294 3381.0 -1301L3323.0 -1314Q3303.0 -1321 3294.5 -1330.5Q3286.0 -1340 3286.0 -1355Q3286.0 -1376 3303.0 -1388.0Q3320.0 -1400 3354.0 -1400H3822.0Q3853.0 -1400 3863.5 -1389.5Q3874.0 -1379 3874.0 -1362Q3874.0 -1343 3861.5 -1331.0Q3849.0 -1319 3828.0 -1313L3765.0 -1298Q3740.0 -1292 3727.0 -1279.0Q3714.0 -1266 3705.0 -1236Q3693.0 -1196 3673.5 -1125.0Q3654.0 -1054 3629.0 -963.0Q3604.0 -872 3577.5 -772.0Q3551.0 -672 3526.0 -574.0Q3501.0 -476 3479.5 -391.5Q3458.0 -307 3443.5 -246.5Q3429.0 -186 3424.0 -162Z M3952.0 -796 3885.0 -812Q3868.0 -818 3859.5 -830.0Q3851.0 -842 3851.0 -856Q3851.0 -877 3868.0 -889.0Q3885.0 -901 3914.0 -901H3991.0Q4018.0 -901 4038.5 -912.0Q4059.0 -923 4079.0 -944L4217.0 -1096Q4233.0 -1113 4248.5 -1119.5Q4264.0 -1126 4283.0 -1126Q4304.0 -1126 4315.0 -1115.0Q4326.0 -1104 4326.0 -1085Q4326.0 -1073 4322.5 -1053.0Q4319.0 -1033 4311.0 -1007L4104.0 -301Q4077.0 -210 4091.5 -178.5Q4106.0 -147 4155.0 -147Q4195.0 -147 4231.0 -166.5Q4267.0 -186 4306.0 -231Q4320.0 -245 4329.5 -250.5Q4339.0 -256 4349.0 -256Q4362.0 -256 4369.5 -246.5Q4377.0 -237 4374.0 -220Q4367.0 -181 4335.0 -138.5Q4303.0 -96 4251.0 -59.0Q4199.0 -22 4131.0 0.5Q4063.0 23 3984.0 23Q3903.0 23 3861.0 -9.5Q3819.0 -42 3814.0 -107.0Q3809.0 -172 3839.0 -269L3968.0 -696Q3984.0 -748 3980.0 -768.5Q3976.0 -789 3952.0 -796ZM4185.0 -799 4217.0 -897H4468.0Q4506.0 -897 4506.0 -863Q4506.0 -833 4481.5 -816.0Q4457.0 -799 4415.0 -799Z" fill="#2f271e"/>
</svg>
